<svg xmlns="http://www.w3.org/2000/svg" viewBox="0 0 24 24" height="24" width="24" id="Navigation-Menu-4-Alternate--Streamline-Ultimate.svg"><desc>Navigation Menu 4 Alternate Streamline Icon: https://streamlinehq.com</desc><g id="Navigation-Menu-4-Alternate--Streamline-Ultimate.svg"><path d="M17.5 11h-11a1 1 0 0 0 0 2h11a1 1 0 0 0 0 -2Z" fill="#000000" stroke-width="1"></path><path d="M17.5 15h-11a1 1 0 0 0 0 2h11a1 1 0 0 0 0 -2Z" fill="#000000" stroke-width="1"></path><path d="M17.5 7h-11a1 1 0 0 0 0 2h11a1 1 0 0 0 0 -2Z" fill="#000000" stroke-width="1"></path><path d="M21 0H3a3 3 0 0 0 -3 3v18a3 3 0 0 0 3 3h18a3 3 0 0 0 3 -3V3a3 3 0 0 0 -3 -3Zm1 21a1 1 0 0 1 -1 1H3a1 1 0 0 1 -1 -1V3a1 1 0 0 1 1 -1h18a1 1 0 0 1 1 1Z" fill="#000000" stroke-width="1"></path></g></svg>